Coordinates
version=1
nRows=10
nColumns=40
inDegrees=yes

Units are S.I. units (second, meters, Newtons, ...)
Angles are in degrees.

endheader
time	pelvis_tilt	pelvis_list	pelvis_rotation	pelvis_tx	pelvis_ty	pelvis_tz	hip_flexion_r	hip_adduction_r	hip_rotation_r	knee_angle_r	knee_angle_r_beta	ankle_angle_r	subtalar_angle_r	mtp_angle_r	hip_flexion_l	hip_adduction_l	hip_rotation_l	knee_angle_l	knee_angle_l_beta	ankle_angle_l	subtalar_angle_l	mtp_angle_l	lumbar_extension	lumbar_bending	lumbar_rotation	arm_flex_r	arm_add_r	arm_rot_r	elbow_flex_r	pro_sup_r	wrist_flex_r	wrist_dev_r	arm_flex_l	arm_add_l	arm_rot_l	elbow_flex_l	pro_sup_l	wrist_flex_l	wrist_dev_l
     15.39000000	     -3.64735430	     -5.05850473	     -0.96478962	      0.93481938	      0.93266355	      0.41367469	     31.64147713	     -5.39948093	     -5.63079576	     68.27925731	     68.27925731	     -1.01581036	    -15.20753293	      0.00865598	     13.78854567	     -4.91572339	     -6.29820915	     23.09247208	     23.09247208	     15.10248338	    -10.67092085	      1.88117066	    -10.76227296	      5.89242683	      2.86354141	     13.77734702	    -12.61600423	     -1.33651519	     47.39993082	     45.42512574	      0.00000000	      0.00000000	     -1.46321185	    -13.12568838	     -5.56459569	     56.57823256	     46.14476483	      0.00000000	      0.00000000
     15.40228571	     -3.60950445	     -5.11922064	     -1.15312876	      0.93449339	      0.93345243	      0.41346817	     32.50740693	     -5.25609427	     -5.85459928	     66.48372992	     66.48372992	     -0.93957840	    -14.64488802	     -0.33079789	     12.74477425	     -4.92678967	     -6.50699491	     22.27400472	     22.27400472	     15.31523985	    -10.47133651	      1.94502814	    -10.89124415	      5.95227157	      3.03415264	     11.69858381	    -12.91063721	     -1.01734267	     45.37672357	     45.47630598	      0.00000000	      0.00000000	     -0.40123249	    -13.31791961	     -5.80858859	     57.59142019	     46.20175464	      0.00000000	      0.00000000
     15.41457143	     -3.57266184	     -5.19128972	     -1.35665374	      0.93419776	      0.93410430	      0.41337595	     33.22798297	     -5.03728574	     -6.05464313	     64.45519479	     64.45519479	     -0.97387026	    -14.14673080	     -0.67658565	     11.76690387	     -5.01939652	     -6.96229811	     21.59354322	     21.59354322	     15.56281049	     -9.89582096	      1.75223132	    -11.03170874	      6.00747502	      3.11809294	      9.84619734	    -13.11304570	     -0.62226670	     43.09680039	     45.53485916	      0.00000000	      0.00000000	      0.48273004	    -13.60216937	     -6.02362569	     58.92856195	     46.26128048	      0.00000000	      0.00000000
     15.42685714	     -3.58462719	     -5.29994198	     -1.52853345	      0.93383942	      0.93456106	      0.41332324	     33.83075191	     -4.77803402	     -6.31844614	     62.12873569	     62.12873569	     -1.32067119	    -13.78895144	     -1.65556776	     10.87935946	     -5.18298367	     -7.51799206	     20.94377247	     20.94377247	     15.72974661	     -9.13564530	      1.17961997	    -11.08767828	      6.08150985	      2.45318163	      9.20102704	    -12.86068180	      0.27848679	     38.79500059	     45.65770584	      0.00000000	      0.00000000	      0.51339062	    -14.21415444	     -6.39654294	     61.07130752	     46.39000643	      0.00000000	      0.00000000
     15.43914286	     -3.55012149	     -5.34500344	     -1.69152663	      0.93358639	      0.93496310	      0.41325242	     34.26644432	     -4.57783032	     -6.54360740	     59.63272312	     59.63272312	     -1.23313626	    -13.09173760	     -1.52021378	      9.91647092	     -5.20720414	     -7.87462512	     20.24458529	     20.24458529	     15.98305029	     -8.66328402	      1.08631102	    -11.23651411	      6.13595973	      2.61811233	      7.16711448	    -13.10012733	      0.52897814	     37.19545028	     45.69430719	      0.00000000	      0.00000000	      1.50425756	    -14.39410023	     -6.85167934	     62.28610473	     46.46264815	      0.00000000	      0.00000000
     15.45142857	     -3.54958484	     -5.36157067	     -1.85383856	      0.93335505	      0.93516258	      0.41323996	     34.59768184	     -4.39988325	     -6.78758344	     56.87764996	     56.87764996	     -1.16501484	    -12.36599525	     -1.38779865	      9.01975657	     -5.22725566	     -8.34098840	     19.58971197	     19.58971197	     16.23304805	     -8.02257929	      0.85634452	    -11.34389302	      6.14395802	      2.70017091	      5.36326828	    -13.23294028	      0.77000418	     35.27415894	     45.74671421	      0.00000000	      0.00000000	      2.32534254	    -14.62714351	     -7.24434644	     63.72755532	     46.53495016	      0.00000000	      0.00000000
     15.46371429	     -3.74328617	     -5.40367796	     -1.93247028	      0.93305216	      0.93491952	      0.41324402	     34.98542028	     -4.20823837	     -7.11894991	     53.84305502	     53.84305502	     -1.07412569	    -11.65624867	     -1.14011009	      8.42865342	     -5.24378625	     -8.52366137	     19.05582099	     19.05582099	     16.49010450	     -7.68164290	      0.74585476	    -11.18433435	      6.24932579	      2.33501043	      3.53366816	    -13.22412906	      0.87436488	     34.12922608	     45.77380848	      0.00000000	      0.00000000	      2.98449447	    -15.11062022	     -7.57671816	     64.55320748	     46.58253758	      0.00000000	      0.00000000
     15.47600000	     -3.75174899	     -5.39105149	     -2.05712212	      0.93298901	      0.93487423	      0.41329053	     34.94957772	     -4.06145855	     -7.46981327	     50.44040327	     50.44040327	     -0.85994257	    -10.71005331	     -1.00246368	      7.52191052	     -5.20537658	     -8.92813943	     18.35239438	     18.35239438	     16.70873007	     -7.08450343	      0.57896134	    -11.25318717	      6.27130403	      2.47233122	      1.70398562	    -13.40281803	      0.96945338	     32.56040873	     45.82002173	      0.00000000	      0.00000000	      3.79901484	    -15.19480770	     -7.92884103	     66.01082105	     46.64415028	      0.00000000	      0.00000000
     15.48828571	     -3.72270738	     -5.28620474	     -2.18904066	      0.93302395	      0.93457192	      0.41352764	     34.70294599	     -3.94380861	     -7.76615046	     46.70923045	     46.70923045	     -1.04753344	     -9.93796926	     -2.23083100	      6.61497418	     -5.16066140	     -9.75201325	     17.74802892	     17.74802892	     16.84771226	     -5.94270064	     -0.42975627	    -11.39840479	      6.07754163	      1.91523144	      1.20421870	    -13.02023020	      0.55197071	     28.55828979	     46.02987417	      0.00000000	      0.00000000	      3.45388033	    -15.62314986	     -8.96381758	     69.48782101	     46.83200432	      0.00000000	      0.00000000
     15.50057143	     -3.85055229	     -5.19217222	     -2.27574790	      0.93310799	      0.93405435	      0.41367793	     34.45695842	     -3.82721716	     -8.20123938	     42.74630673	     42.74630673	     -0.79181189	     -8.79673341	     -1.98787589	      5.85684343	     -4.99209890	     -9.95080167	     17.06804592	     17.06804592	     17.06472081	     -5.64489124	     -0.48466886	    -11.30878853	      6.01751978	      1.87415373	     -0.69167366	    -13.14333938	      0.49253785	     27.55909956	     46.06279095	      0.00000000	      0.00000000	      4.22398423	    -15.74204317	     -9.44075906	     70.51391783	     46.89649432	      0.00000000	      0.00000000
